<?xml version="1.0" encoding="utf-8"?>
<!-- Generator: Adobe Illustrator 26.2.1, SVG Export Plug-In . SVG Version: 6.00 Build 0)  -->
<svg version="1.1" id="Layer_1" xmlns="http://www.w3.org/2000/svg" xmlns:xlink="http://www.w3.org/1999/xlink" x="0px" y="0px"
	 viewBox="0 0 100 100" style="enable-background:new 0 0 100 100;" xml:space="preserve">
<style type="text/css">
	.st0{fill:#F5EFE8;}
</style>
<g>
	<g>
		<defs>
			<path id="SVGID_00000120536105695404649840000003631644651660562087_" d="M95.92,99.85H4.08C1.84,99.85,0,98.02,0,95.77V3.93
				c0-2.24,1.84-4.08,4.08-4.08h91.84c2.24,0,4.08,1.84,4.08,4.08v91.84C100,98.02,98.16,99.85,95.92,99.85z"/>
		</defs>
		<use xlink:href="#SVGID_00000120536105695404649840000003631644651660562087_"  style="overflow:visible;fill:#734B32;"/>
		<clipPath id="SVGID_00000168076891321768968890000000940218566697982390_">
			<use xlink:href="#SVGID_00000120536105695404649840000003631644651660562087_"  style="overflow:visible;"/>
		</clipPath>
	</g>
	<path class="st0" d="M66.84,17.79H33.16c-1.95,0-3.52,1.58-3.52,3.52v57.08c0,1.95,1.58,3.52,3.52,3.52h33.69
		c1.95,0,3.52-1.58,3.52-3.52V21.31C70.37,19.37,68.79,17.79,66.84,17.79z M45.47,20.67h9.1c0.37,0,0.67,0.3,0.67,0.67
		s-0.3,0.67-0.67,0.67h-9.1c-0.37,0-0.67-0.3-0.67-0.67S45.1,20.67,45.47,20.67z M67.06,76.95c0,1.08-0.87,1.95-1.95,1.95H34.92
		c-1.08,0-1.95-0.87-1.95-1.95V26.48c0-1.08,0.87-1.95,1.95-1.95h30.19c1.08,0,1.95,0.87,1.95,1.95V76.95z"/>
</g>
</svg>
