<?xml version="1.0" encoding="utf-8"?>
<!-- Generator: Adobe Illustrator 26.2.1, SVG Export Plug-In . SVG Version: 6.00 Build 0)  -->
<svg version="1.1" id="Layer_1" xmlns="http://www.w3.org/2000/svg" xmlns:xlink="http://www.w3.org/1999/xlink" x="0px" y="0px"
	 viewBox="0 0 100 100" style="enable-background:new 0 0 100 100;" xml:space="preserve">
<style type="text/css">
	.st0{fill:#F5EFE8;}
</style>
<g>
	<g>
		<defs>
			<path id="SVGID_00000176764796442829779640000017508613698449137307_" d="M95.92,100H4.08C1.84,100,0,98.16,0,95.92V4.08
				C0,1.84,1.84,0,4.08,0h91.84C98.16,0,100,1.84,100,4.08v91.84C100,98.16,98.16,100,95.92,100z"/>
		</defs>
		<use xlink:href="#SVGID_00000176764796442829779640000017508613698449137307_"  style="overflow:visible;fill:#734B32;"/>
		<clipPath id="SVGID_00000146479566802771771950000013762304658165858964_">
			<use xlink:href="#SVGID_00000176764796442829779640000017508613698449137307_"  style="overflow:visible;"/>
		</clipPath>
	</g>
	<g>
		<path class="st0" d="M50,53.47l35.07-18.06v-2.08c0-2.61-2.11-4.72-4.72-4.72h-60.7c-2.61,0-4.72,2.11-4.72,4.72v2.08L50,53.47z"
			/>
		<path class="st0" d="M49.95,56.68l-0.05-0.1l-0.01,0.01l-34.96-18v28.07c0,2.61,2.11,4.72,4.72,4.72h60.7
			c2.61,0,4.72-2.11,4.72-4.72V38.6L49.95,56.68z"/>
	</g>
</g>
</svg>
