<?xml version="1.0" encoding="utf-8"?>
<!-- Generator: Adobe Illustrator 26.2.1, SVG Export Plug-In . SVG Version: 6.00 Build 0)  -->
<svg version="1.1" id="Layer_1" xmlns="http://www.w3.org/2000/svg" xmlns:xlink="http://www.w3.org/1999/xlink" x="0px" y="0px"
	 viewBox="0 0 100 100" style="enable-background:new 0 0 100 100;" xml:space="preserve">
<style type="text/css">
	.st0{fill:#F5EFE8;}
</style>
<g>
	<g>
		<defs>
			<path id="SVGID_00000156589613097959124840000006716790330528745106_" d="M95.92,100H4.08C1.84,100,0,98.16,0,95.92V4.08
				C0,1.84,1.84,0,4.08,0h91.84C98.16,0,100,1.84,100,4.08v91.84C100,98.16,98.16,100,95.92,100z"/>
		</defs>
		<use xlink:href="#SVGID_00000156589613097959124840000006716790330528745106_"  style="overflow:visible;fill:#734B32;"/>
		<clipPath id="SVGID_00000047771123429945394840000015289885677752721296_">
			<use xlink:href="#SVGID_00000156589613097959124840000006716790330528745106_"  style="overflow:visible;"/>
		</clipPath>
	</g>
	<g>
		<path class="st0" d="M59.19,56.7c-0.87,1.53-1.19,3.12-1.41,4.8C53.59,66.06,33.92,50,39.55,45.47c1.08,0.02,2.5-0.54,3.88-1.41
			l-14.56-22.3c-4.33,2.33-8.07,7.03-8.43,10.73c-1.56,32.03,38.1,51.02,52.38,46.54c3.31-0.7,7.13-4.29,9.17-8.37L59.19,56.7z"/>
		<path class="st0" d="M82.89,68.49c0.69-2.15,0.81-4.33,0.02-6.21c-2.35-4.72-13.68-11.07-18.92-10.05
			c-1.48,0.85-2.55,1.73-3.39,2.62L82.89,68.49z"/>
		<path class="st0" d="M45.26,42.64c1.5-1.34,2.67-2.94,2.79-4.38c0.43-5.32-7.15-15.87-12.11-17.67c-1.56-0.46-3.26-0.32-4.93,0.23
			L45.26,42.64z"/>
	</g>
</g>
</svg>
